<svg xmlns="http://www.w3.org/2000/svg" xmlns:xlink="http://www.w3.org/1999/xlink" version="1.1" x="0px" y="0px" viewBox="0 0 100 100" style="enable-background:new 0 0 100 100;" xml:space="preserve"><style type="text/css">
	.st0{fill:#010101;}
	.st1{fill:none;stroke:#010101;stroke-linecap:round;stroke-linejoin:round;stroke-miterlimit:10;}
	.st2{fill:none;stroke:#010101;stroke-width:2;stroke-linecap:round;stroke-linejoin:round;stroke-miterlimit:10;}
</style><g><g><g><path class="st0" d="M25,22.5c-0.1,0-0.2,0-0.3,0c-0.3-0.1-0.6-0.4-0.7-0.7c-2.3-9,0-15.7,1.1-18.2c0.6-1.3,2-1.9,3.3-1.4     c7,2.7,11.6,8.5,12.9,10.3c0.2,0.3,0.2,0.6,0.1,0.9c-0.1,0.3-0.4,0.5-0.7,0.6c-3.1,0.8-6,2-8.6,3.5c-2.4,1.3-4.6,2.9-6.5,4.7     C25.5,22.4,25.2,22.5,25,22.5z"></path></g><g><path class="st0" d="M75.2,22.6c-0.2,0-0.5-0.1-0.7-0.3c-2-1.9-4.2-3.5-6.7-4.9c-2.6-1.5-5.4-2.6-8.4-3.5     c-0.3-0.1-0.6-0.3-0.7-0.6c-0.1-0.3-0.1-0.6,0.1-0.9c1.2-1.7,5.8-7.6,12.9-10.3C73,1.7,74.5,2.3,75,3.5c1.4,3.1,3.3,9.7,1.1,18.4     c-0.1,0.3-0.3,0.6-0.7,0.7C75.3,22.6,75.2,22.6,75.2,22.6z"></path></g><g><path class="st0" d="M52.6,98c-0.8,0-1.4-0.4-1.8-1.1L50,95.1l-0.8,1.7c-0.3,0.7-1,1.1-1.8,1.1c-0.8,0-1.6-0.5-1.8-1.3     c-0.9-2.3-1.4-5.1-1.7-7.4l-0.5,1.4c-0.3,0.8-1,1.3-1.8,1.3c-0.8,0-1.6-0.5-1.9-1.3C38,86.1,34.4,79.2,29.9,74     c-3.9-4.5-4.4-9.3-4.2-12.3c-0.5,0.7-1.1,1.7-1.9,3c-0.4,0.6-1,1-1.7,1c-1,0-1.9-0.8-2-1.8c-0.3-4.2,0-8.9,0.3-12     c-0.5,0.4-1.1,0.9-1.8,1.4c-0.8,0.6-1.9,0.4-2.6-0.2c-0.4-0.4-0.6-0.9-0.5-1.4c0.4-13.3,4.8-23.4,13.2-29.9     c6.8-5.4,14.5-6.9,18.5-7.4c0.5-0.1,0.9,0.2,1,0.7c0.1,0.4,0,0.9-0.4,1.2c-0.9,0.5-1.9,1.5-1.9,3.4c0,1,0.2,2.2,0.6,3.5     c3.1,8.7,1.5,22.7-3.4,28.7c-2.5,3.1-3.1,7.5-1.5,10.8c1.4,3,4.4,4.6,8.5,4.6c4,0,7.1-1.6,8.5-4.6c1.6-3.3,1-7.7-1.5-10.8     c-4.9-6.1-6.5-20-3.4-28.7c0.4-1.2,0.7-2.4,0.6-3.4c-0.1-1.9-1.1-2.9-1.9-3.4c-0.4-0.2-0.6-0.7-0.4-1.2c0.1-0.4,0.6-0.7,1-0.7     c4,0.5,11.7,2.1,18.4,7.5c8.3,6.6,12.6,16.6,13,29.8c0,0.5-0.2,1-0.6,1.4c-0.7,0.7-1.8,0.8-2.6,0.2l0,0c-0.7-0.5-1.3-0.9-1.8-1.4     c0.3,3,0.7,7.7,0.3,11.9c-0.1,1-0.9,1.8-2,1.8c-0.7,0-1.4-0.4-1.7-1c-0.7-1.3-1.3-2.2-1.9-3c0.2,3.1-0.4,7.9-4.2,12.3     c-4.5,5.2-8.1,12.1-9.7,16.6c-0.3,0.8-1,1.3-1.9,1.3c-0.8,0-1.5-0.5-1.8-1.3l-0.5-1.4c-0.3,2.3-0.9,5.1-1.8,7.4     C54.2,97.5,53.4,98,52.6,98z M44.3,84.3c0,0,0.1,0,0.1,0c0.5,0.1,0.8,0.4,0.8,0.9c0,0.1,0.5,6.6,2.1,10.8l1.8-3.6     c0.2-0.3,0.5-0.6,0.9-0.6h0c0.4,0,0.7,0.2,0.9,0.6l1.7,3.6c1.6-4.2,2.1-10.8,2.1-10.8c0-0.5,0.4-0.8,0.8-0.9     c0.5-0.1,0.9,0.2,1.1,0.6l2,5.1c1.7-4.7,5.4-11.9,10.1-17.3c5.5-6.4,3.3-13.6,3.3-13.7c-0.1-0.4,0-0.8,0.3-1.1     c0.3-0.3,0.8-0.3,1.1-0.1c1.3,0.8,2.7,2.7,4.5,5.8c0.5-6.6-0.7-14.7-0.7-14.8c-0.1-0.5,0.2-1,0.7-1.1c0.5-0.1,1,0.1,1.2,0.6     c0.3,0.7,1.5,1.9,3.4,3.2l-0.6,0.8l0.6-0.8c0,0,0,0,0,0c-0.8-26.1-17.4-33.1-26.9-35c0.4,0.8,0.7,1.8,0.7,2.8     c0,1.3-0.2,2.7-0.7,4.2c-2.9,8-1.4,21.3,3.1,26.8c3,3.7,3.7,8.8,1.7,12.8C58.5,67,54.9,69,50,69c-4.8,0-8.5-2-10.3-5.7     c-1.9-4-1.2-9.2,1.7-12.8c4.4-5.5,6-18.8,3.1-26.8c-0.5-1.5-0.8-2.9-0.7-4.2c0-1,0.3-2,0.7-2.8c-9.6,1.9-26.3,8.9-27.1,35     c2.8-2,3.3-3,3.4-3.2c0.2-0.5,0.7-0.7,1.2-0.6c0.5,0.1,0.8,0.6,0.7,1.1c0,0.1-1.2,8.1-0.7,14.7c1.8-3.1,3.3-5,4.5-5.8     c0.3-0.2,0.8-0.2,1.1,0.1c0.3,0.3,0.5,0.7,0.3,1.1c-0.1,0.3-2.2,7.3,3.3,13.7c4.6,5.4,8.4,12.6,10,17.3l2-5.1     C43.5,84.5,43.9,84.3,44.3,84.3z M64.2,33.6c-1.6,0-2.9,1.3-2.9,2.9c0,1.6,1.3,2.9,2.9,2.9c1.6,0,2.9-1.3,2.9-2.9     C67.2,34.9,65.8,33.6,64.2,33.6z M35.8,33.6c-1.6,0-2.9,1.3-2.9,2.9c0,1.6,1.3,2.9,2.9,2.9c1.6,0,2.9-1.3,2.9-2.9     C38.7,34.9,37.4,33.6,35.8,33.6z"></path></g><g><path class="st0" d="M50,56.6c-2.6,0-4.8,1.4-4.8,3.2c0,1.7,2.2,3.2,4.8,3.2c2.6,0,4.8-1.4,4.8-3.2C54.8,58.1,52.6,56.6,50,56.6z     "></path></g></g></g></svg>